Coordinates
version=1
nRows=22
nColumns=24
inDegrees=yes

Units are S.I. units (second, meters, Newtons, ...)
Angles are in degrees.

endheader
time	pelvis_tilt	pelvis_list	pelvis_rotation	pelvis_tx	pelvis_ty	pelvis_tz	hip_flexion_r	hip_adduction_r	hip_rotation_r	knee_angle_r	ankle_angle_r	subtalar_angle_r	mtp_angle_r	hip_flexion_l	hip_adduction_l	hip_rotation_l	knee_angle_l	ankle_angle_l	subtalar_angle_l	mtp_angle_l	lumbar_extension	lumbar_bending	lumbar_rotation
      0.72500000	     -0.37625840	      2.36434331	     14.05762136	      0.10888480	      0.97720175	      0.23516894	     26.39630884	     -5.72193226	     -9.14537074	      0.47140268	      9.67603143	    -14.80232968	      6.83615317	    -24.27000701	      0.79219748	     14.00071041	     -3.86214268	      9.29702998	     -5.97325541	     12.18813955	     -3.29250381	     -2.64935077	     -7.00515785
      0.72916667	     -0.36908470	      2.30124202	     14.20102410	      0.11527674	      0.97666199	      0.23516918	     26.32453614	     -5.65546593	     -9.05393880	      0.06110340	      9.76838601	    -14.91023179	      6.83117740	    -24.40555395	      0.59985870	     14.03281131	     -4.25006225	      9.04191138	     -5.91242899	     12.19822969	     -3.24911287	     -2.54571313	     -7.04573972
      0.73333333	     -0.32159056	      2.22693195	     14.32209675	      0.12173908	      0.97617774	      0.23522502	     26.19674599	     -5.55087300	     -8.90222607	     -0.33949080	      9.79045839	    -15.08650847	      6.81315362	    -24.55627324	      0.38846653	     13.91106974	     -4.68781240	      8.82071382	     -5.62106382	     12.30942141	     -3.23124581	     -2.40985454	     -7.27532776
      0.73750000	     -0.31432832	      2.14275086	     14.44893395	      0.12827771	      0.97567679	      0.23526340	     26.12533162	     -5.44655259	     -8.81744826	     -0.79553778	      9.80269691	    -15.19659348	      6.81302023	    -24.67510002	      0.17989546	     13.90578000	     -5.10037282	      8.51486750	     -5.54815155	     12.34019842	     -3.15826319	     -2.28348061	     -7.30341714
      0.74166667	     -0.29447666	      2.02974368	     14.54187973	      0.13492282	      0.97519290	      0.23537022	     26.02768266	     -5.28733819	     -8.64625578	     -1.22287622	      9.71780254	    -15.36848886	      6.82314789	    -24.79272233	     -0.05490856	     13.77309412	     -5.53161904	      8.18597070	     -5.28960026	     12.46253525	     -3.08410495	     -2.10450328	     -7.43723654
      0.74583333	     -0.25270620	      1.91841430	     14.64533131	      0.14156435	      0.97477311	      0.23549192	     25.89886311	     -5.12172375	     -8.48992986	     -1.64186712	      9.51242138	    -15.66518000	      6.86719522	    -24.87043594	     -0.29425756	     13.53560505	     -6.08904623	      7.96372383	     -4.90769110	     12.78207634	     -3.03555617	     -1.94517496	     -7.57338129
      0.75000000	     -0.24752296	      1.78601837	     14.72489470	      0.14832158	      0.97433364	      0.23561457	     25.83723582	     -4.93792879	     -8.39192048	     -2.12389051	      9.34457562	    -15.76390560	      6.89273216	    -24.96208784	     -0.53538705	     13.44643625	     -6.52718741	      7.52939324	     -4.78788142	     12.91981891	     -2.92600552	     -1.75860332	     -7.60820774
      0.75416667	     -0.21223582	      1.63835512	     14.80000165	      0.15509887	      0.97394958	      0.23579221	     25.71717026	     -4.71643243	     -8.20207730	     -2.54125650	      9.00103883	    -16.14265925	      6.99472621	    -25.00412704	     -0.80025909	     13.14508864	     -7.12474345	      7.24521830	     -4.38133638	     13.39202092	     -2.84464851	     -1.55863098	     -7.72588385
      0.75833333	     -0.21117037	      1.47831699	     14.84927999	      0.16196519	      0.97355711	      0.23596297	     25.67764813	     -4.49103877	     -8.12362888	     -3.04860648	      8.71037318	    -16.20930975	      7.04145198	    -25.06568904	     -1.05410637	     13.01504661	     -7.59916666	      6.73276633	     -4.26822134	     13.58570808	     -2.71793111	     -1.34499482	     -7.74908827
      0.76250000	     -0.20133522	      1.30982545	     14.90727431	      0.16882817	      0.97319457	      0.23615805	     25.62574790	     -4.25469844	     -8.04665040	     -3.53894271	      8.26555824	    -16.47447079	      9.08658299	    -25.03822819	     -1.32885607	     12.63770207	     -8.24856746	      6.30365496	     -3.87426190	     21.39835380	     -2.58721394	     -1.13514376	     -7.79253149
      0.76666667	     -0.17633617	      1.11680084	     14.91834467	      0.17577590	      0.97287918	      0.23641781	     25.55783905	     -3.96366759	     -7.85901469	     -4.01474723	      7.81881306	    -16.79940972	      9.08979391	    -25.06544271	     -1.60832533	     12.35364583	     -8.82754966	      5.80945222	     -3.65832059	     21.46972203	     -2.46719569	     -0.87683325	     -7.84823475
      0.77083333	     -0.18275301	      0.90981670	     14.92402796	      0.18274223	      0.97255439	      0.23667557	     25.55239901	     -3.67271864	     -7.74050980	     -4.54178494	      7.34589328	    -17.02382432	      9.11718848	    -25.01872830	     -1.88985236	     12.02143435	     -9.47790796	      5.31774811	     -3.33919974	     21.60914962	     -2.30072527	     -0.61960427	     -7.87200490
      0.77500000	     -0.18346524	      0.69097529	     14.91128759	      0.18973597	      0.97226615	      0.23696916	     25.55572655	     -3.36181739	     -7.61665575	     -5.09030466	      6.83554801	    -17.26005422	      9.17157522	    -24.95762912	     -2.17976907	     11.64558785	    -10.15937014	      4.80222071	     -2.98316033	     21.83232761	     -2.13971010	     -0.34780198	     -7.88799881
      0.77916667	     -0.19160549	      0.46888995	     14.87515021	      0.19674084	      0.97199783	      0.23728743	     25.59764669	     -3.04664707	     -7.50932465	     -5.69618681	      6.31061190	    -17.45899787	      9.25750873	    -24.87170132	     -2.46111182	     11.24403894	    -10.86845002	      4.25705603	     -2.60096289	     22.16926271	     -1.96600202	     -0.07267167	     -7.89192781
      0.78333333	     -0.17082753	      0.22520666	     14.85659675	      0.20376464	      0.97182269	      0.23757889	     25.60934760	     -2.71563061	     -7.47707206	     -6.30225801	      5.79970853	    -17.60458076	     10.61566842	    -24.78437474	     -2.78139351	     10.83224775	    -11.60721569	      3.59355567	     -2.29927853	     27.46691068	     -1.81917001	      0.23610894	     -7.90335968
      0.78750000	     -0.21765377	     -0.01324352	     14.76973951	      0.21078963	      0.97155557	      0.23796351	     25.74472190	     -2.38374653	     -7.34574381	     -7.00835371	      5.36530421	    -17.72492555	     10.61593701	    -24.61389685	     -3.04466907	     10.39417453	    -12.39532319	      2.97334769	     -2.00776228	     27.52902082	     -1.59311490	      0.51830003	     -7.87821180
      0.79166667	     -0.22916959	     -0.26643282	     14.68683753	      0.21780788	      0.97137617	      0.23834383	     25.85380309	     -2.03565509	     -7.26621677	     -7.73762156	      4.91933157	    -17.82637631	     10.62808139	    -24.44493612	     -3.34005124	      9.90983545	    -13.23503174	      2.34775604	     -1.59907203	     27.66200126	     -1.40596495	      0.83372600	     -7.85577457
      0.79583333	     -0.25303109	     -0.52049554	     14.58858899	      0.22481548	      0.97121173	      0.23875209	     26.00258185	     -1.68973031	     -7.19829870	     -8.52624759	      4.52222249	    -17.88894798	     10.65011492	    -24.24070148	     -3.62788030	      9.42604155	    -14.11139847	      1.68550641	     -1.20761856	     27.85933099	     -1.21396094	      1.13976292	     -7.82700729
      0.80000000	     -0.27111919	     -0.77502231	     14.47932134	      0.23179810	      0.97108822	      0.23917369	     26.16268083	     -1.34342934	     -7.14308412	     -9.35676656	      4.17881930	    -17.91128736	     10.67796327	    -24.01338822	     -3.91548766	      8.92490469	    -15.03675007	      1.00053671	     -0.81005727	     28.12071096	     -1.02828710	      1.45456743	     -7.79642633
      0.80416667	     -0.29148637	     -1.02563380	     14.35465965	      0.23876054	      0.97099275	      0.23961571	     26.34026673	     -1.00054817	     -7.08975078	    -10.22629437	      3.89482100	    -17.88914078	     10.70414633	    -23.76217362	     -4.19348959	      8.42441341	    -15.99802725	      0.26804498	     -0.45189036	     28.39622268	     -0.83793668	      1.76182109	     -7.75915547
      0.80833333	     -0.31048466	     -1.27607317	     14.22403062	      0.24568991	      0.97093099	      0.24007742	     26.52656770	     -0.65815829	     -7.04658861	    -11.12527458	      3.65813992	    -17.84034136	     10.72775534	    -23.48080402	     -4.47330954	      7.91798778	    -17.01013089	     -0.47261643	     -0.08093907	     28.70016719	     -0.66142360	      2.06930390	     -7.72794405
      0.81250000	     -0.32495196	     -1.51860192	     14.08091607	      0.25258563	      0.97090406	      0.24055745	     26.71518067	     -0.32052315	     -7.00416610	    -12.04822082	      3.47184086	    -17.76448183	     10.74630466	    -23.18221322	     -4.74328867	      7.41701874	    -18.05866289	     -1.24497449	      0.26862463	     29.01085562	     -0.49429052	      2.36921800	     -7.69438842
